<?xml version="1.0" encoding="utf-8"?>
<!-- Generator: Adobe Illustrator 16.0.0, SVG Export Plug-In . SVG Version: 6.00 Build 0)  -->
<!DOCTYPE svg PUBLIC "-//W3C//DTD SVG 1.1//EN" "http://www.w3.org/Graphics/SVG/1.1/DTD/svg11.dtd">
<svg version="1.1" id="Calque_1" xmlns="http://www.w3.org/2000/svg" xmlns:xlink="http://www.w3.org/1999/xlink" x="0px" y="0px"
	 width="100px" height="100px" viewBox="0 0 100 100" enable-background="new 0 0 100 100" xml:space="preserve">
<g id="Captions">
</g>
<g id="Your_Icon">
	<circle fill="#FFFFFF" cx="59.771" cy="18.308" r="6.967"/>
	<path fill="#FFFFFF" d="M80.928,50.766c-3.123,0-6.068,0.764-8.666,2.105l-2.805-4.248V42.42c1.607-0.09,2.889-1.41,2.889-3.042
		c0-1.689-1.369-3.059-3.059-3.059h-9.43l-5.297-11.478c-0.205-0.445-0.511-0.807-0.869-1.094c-0.106-0.112-0.215-0.224-0.334-0.329
		c-2.242-1.996-5.683-1.794-7.676,0.451L29.968,41.543c-1.83,2.059-1.807,5.117-0.06,7.15c0.201,0.319,0.446,0.611,0.732,0.866
		L28.171,53.1c-2.703-1.486-5.804-2.334-9.1-2.334c-10.447,0-18.947,8.5-18.947,18.947s8.5,18.947,18.947,18.947
		c9.764,0,17.824-7.426,18.838-16.926l9.796-0.008v4.018c0,2.252,1.826,4.078,4.078,4.078c2.252,0,4.078-1.826,4.078-4.078v-6.791
		l10.892-17.021l2.104,3.188C64.659,58.6,61.98,63.85,61.98,69.714c0,10.447,8.5,18.947,18.946,18.947
		c10.447,0,18.947-8.5,18.947-18.947C99.875,59.266,91.375,50.766,80.928,50.766z M51.77,33.392l3.354,7.269
		c0.5,1.083,1.585,1.777,2.776,1.777h7.479v4.758H46.982l-5.638-2.079L51.77,33.392z M19.072,84.58
		c-8.198,0-14.869-6.668-14.869-14.867s6.671-14.87,14.869-14.87c2.429,0,4.722,0.589,6.749,1.626l-8.422,12.076
		c-0.435,0.623-0.486,1.438-0.135,2.111c0.352,0.672,1.048,1.096,1.808,1.096h0.002l14.725-0.014
		C32.808,78.982,26.583,84.58,19.072,84.58z M33.797,67.66l-10.814,0.01l6.181-8.865C31.625,61.084,33.314,64.182,33.797,67.66z
		 M37.906,67.656c-0.526-4.855-2.897-9.166-6.395-12.219l2.904-4.164h0.051l13.239,4.883v11.492L37.906,67.656z M55.861,61.386
		v-8.071c0-0.735-0.207-1.432-0.559-2.039h7.029L55.861,61.386z M80.928,84.58c-8.197,0-14.869-6.668-14.869-14.867
		c0-4.445,1.963-8.438,5.063-11.164l8.104,12.287c0.393,0.594,1.043,0.916,1.705,0.916c0.385,0,0.774-0.109,1.12-0.338
		c0.938-0.621,1.199-1.885,0.579-2.826L74.52,56.297c1.941-0.932,4.113-1.454,6.407-1.454c8.198,0,14.869,6.671,14.869,14.87
		C95.797,77.912,89.126,84.58,80.928,84.58z"/>
</g>
</svg>
